<svg id="svg" version="1.1" xmlns="http://www.w3.org/2000/svg" xmlns:xlink="http://www.w3.org/1999/xlink" width="400" height="400" viewBox="0, 0, 400,400"><g id="svgg"><path id="path0" d="M159.400 61.200 C 159.264 61.420,158.634 61.600,158.000 61.600 C 157.366 61.600,156.750 61.757,156.632 61.948 C 156.514 62.140,155.843 62.411,155.142 62.552 C 154.441 62.692,153.279 63.255,152.560 63.803 C 151.841 64.351,151.100 64.800,150.912 64.800 C 150.462 64.800,146.800 68.524,146.800 68.982 C 146.800 69.177,146.548 69.621,146.241 69.969 C 145.096 71.261,143.968 73.723,143.732 75.445 C 143.598 76.422,143.333 77.318,143.144 77.435 C 142.955 77.552,142.800 91.227,142.800 107.824 L 142.800 138.000 71.400 138.000 L 0.000 138.000 0.000 148.000 L 0.000 158.000 81.400 158.000 L 162.800 158.000 162.800 119.701 L 162.800 81.401 222.200 140.800 L 281.600 200.199 222.300 259.500 L 163.000 318.801 162.898 280.801 L 162.796 242.800 81.398 242.800 L 0.000 242.800 0.000 252.600 L 0.000 262.400 30.900 262.400 C 47.895 262.400,80.025 262.520,102.300 262.666 L 142.800 262.932 142.800 293.042 C 142.800 312.685,142.939 323.239,143.200 323.400 C 143.420 323.536,143.600 324.083,143.600 324.616 C 143.600 325.929,144.716 328.723,145.860 330.273 C 146.377 330.974,146.800 331.687,146.800 331.858 C 146.800 332.359,150.121 335.600,150.634 335.600 C 150.892 335.600,151.319 335.861,151.583 336.180 C 152.181 336.900,155.228 338.400,156.093 338.400 C 156.445 338.400,156.808 338.625,156.900 338.899 C 157.113 339.539,167.821 339.602,169.238 338.972 C 175.477 336.194,171.440 340.036,236.716 274.764 C 270.371 241.111,298.359 212.906,298.911 212.088 C 303.599 205.134,303.398 195.190,298.423 187.921 C 297.075 185.950,176.827 65.781,175.000 64.579 C 172.721 63.078,169.135 61.600,167.775 61.600 C 167.265 61.600,166.736 61.420,166.600 61.200 C 166.464 60.980,164.844 60.800,163.000 60.800 C 161.156 60.800,159.536 60.980,159.400 61.200 " stroke="none" fill="#fafafa" fill-rule="evenodd"></path><path id="path1" d="M162.800 119.701 L 162.800 158.000 81.400 158.000 L 0.000 158.000 0.000 200.400 L 0.000 242.800 81.398 242.800 L 162.796 242.800 162.898 280.801 L 163.000 318.801 222.300 259.500 L 281.600 200.199 222.200 140.800 L 162.800 81.401 162.800 119.701 " stroke="none" fill="#941c1c" fill-rule="evenodd"></path><path id="path2" d="M211.600 1.231 C 200.578 1.769,185.908 2.830,178.600 3.616 C 166.848 4.881,152.962 6.706,148.200 7.613 C 147.100 7.823,143.680 8.464,140.600 9.039 C 108.959 14.943,88.614 24.394,88.839 33.084 L 88.879 34.600 89.340 33.000 C 90.986 27.300,96.779 22.896,108.800 18.206 C 109.790 17.820,110.960 17.360,111.400 17.183 C 111.840 17.006,113.280 16.548,114.600 16.165 C 115.920 15.782,117.180 15.342,117.400 15.187 C 117.620 15.031,118.520 14.780,119.400 14.628 C 120.849 14.378,122.802 13.847,124.400 13.270 C 125.109 13.014,129.288 12.055,131.000 11.755 C 131.660 11.640,132.560 11.394,133.000 11.209 C 133.440 11.023,135.060 10.660,136.600 10.402 C 138.140 10.144,140.210 9.760,141.200 9.548 C 142.190 9.337,144.710 8.888,146.800 8.551 C 148.890 8.214,151.590 7.767,152.800 7.558 C 154.010 7.348,157.070 6.907,159.600 6.578 C 162.130 6.248,165.460 5.804,167.000 5.590 C 169.774 5.205,178.489 4.289,186.200 3.573 C 193.901 2.857,209.919 2.021,223.556 1.623 C 231.122 1.402,237.407 1.126,237.523 1.010 C 237.823 0.710,218.970 0.870,211.600 1.231 M251.285 1.018 C 251.405 1.138,257.690 1.413,265.251 1.629 C 279.158 2.027,295.439 2.881,302.400 3.578 C 304.490 3.787,308.990 4.234,312.400 4.572 C 315.810 4.910,319.950 5.365,321.600 5.584 C 323.250 5.802,326.670 6.252,329.200 6.583 C 331.730 6.914,334.790 7.356,336.000 7.567 C 337.210 7.777,339.910 8.224,342.000 8.561 C 344.090 8.898,346.610 9.344,347.600 9.553 C 348.590 9.762,350.660 10.144,352.200 10.402 C 353.740 10.660,355.360 11.016,355.800 11.193 C 356.851 11.615,362.132 12.800,362.963 12.800 C 363.319 12.800,363.923 12.965,364.305 13.167 C 364.687 13.368,366.080 13.828,367.400 14.188 C 370.841 15.127,376.463 16.817,377.400 17.196 C 377.840 17.373,378.857 17.807,379.660 18.159 C 380.464 18.512,381.302 18.800,381.523 18.800 C 381.744 18.800,382.616 19.144,383.462 19.564 C 384.308 19.984,386.170 20.905,387.600 21.610 C 389.030 22.316,390.773 23.322,391.473 23.846 C 392.174 24.371,392.861 24.800,393.002 24.800 C 393.142 24.800,393.523 25.066,393.848 25.391 C 394.173 25.716,394.753 26.211,395.136 26.491 C 396.543 27.518,398.517 30.411,399.221 32.478 L 399.944 34.600 399.972 32.978 C 400.068 27.422,390.731 20.978,375.071 15.794 C 367.701 13.354,363.936 12.369,352.000 9.760 C 349.106 9.127,337.547 7.136,332.600 6.417 C 330.840 6.162,328.320 5.788,327.000 5.587 C 324.824 5.256,319.827 4.677,309.800 3.592 C 292.617 1.733,250.131 -0.136,251.285 1.018 M88.841 366.916 C 88.574 376.710,113.474 386.987,152.000 392.984 C 161.978 394.537,164.236 394.829,178.400 396.399 C 181.581 396.752,189.985 397.423,203.600 398.412 C 209.632 398.850,238.101 399.354,237.400 399.010 C 237.180 398.902,230.700 398.626,223.000 398.395 C 209.469 397.991,194.701 397.200,186.000 396.413 C 179.954 395.867,169.860 394.815,166.600 394.391 C 160.866 393.645,154.927 392.812,152.600 392.425 C 144.396 391.064,142.821 390.791,141.200 390.448 C 140.210 390.238,138.140 389.859,136.600 389.604 C 135.060 389.350,133.487 388.975,133.105 388.771 C 132.723 388.567,132.093 388.402,131.705 388.403 C 130.892 388.407,125.787 387.238,124.600 386.776 C 124.160 386.605,122.540 386.162,121.000 385.792 C 119.460 385.422,117.840 384.970,117.400 384.788 C 116.960 384.606,115.610 384.161,114.400 383.800 C 113.190 383.439,111.840 382.994,111.400 382.812 C 110.960 382.630,109.970 382.254,109.200 381.978 C 107.878 381.503,105.146 380.331,102.000 378.889 C 95.372 375.851,90.379 371.178,89.297 367.000 L 88.883 365.400 88.841 366.916 M399.303 367.266 C 398.813 369.104,396.545 372.516,395.153 373.509 C 394.760 373.789,394.205 374.243,393.920 374.517 C 392.139 376.228,385.885 379.498,380.000 381.794 C 379.010 382.180,377.840 382.639,377.400 382.814 C 376.326 383.242,369.049 385.448,366.800 386.028 C 365.810 386.283,364.730 386.594,364.400 386.719 C 363.717 386.978,359.599 387.930,357.800 388.245 C 357.140 388.360,356.240 388.606,355.800 388.791 C 355.360 388.977,353.740 389.340,352.200 389.598 C 350.660 389.856,348.590 390.240,347.600 390.452 C 346.610 390.663,344.090 391.112,342.000 391.449 C 339.910 391.786,337.210 392.231,336.000 392.438 C 334.034 392.775,331.530 393.125,321.800 394.421 C 318.611 394.845,309.021 395.851,302.800 396.413 C 294.261 397.185,279.410 397.980,265.613 398.405 C 257.810 398.645,251.330 398.947,251.213 399.075 C 250.888 399.433,278.190 398.892,285.000 398.406 C 298.221 397.463,307.169 396.751,310.400 396.386 C 312.270 396.175,316.230 395.730,319.200 395.398 C 329.523 394.244,345.362 391.791,351.400 390.410 C 352.280 390.209,354.350 389.754,356.000 389.400 C 382.740 383.656,400.558 374.519,399.923 366.876 L 399.800 365.400 399.303 367.266 " stroke="none" fill="#348a34" fill-rule="evenodd"></path><path id="path3" d="M-0.000 69.002 L -0.000 138.003 44.300 137.902 L 88.600 137.800 88.800 84.400 C 89.026 24.060,88.637 30.183,92.473 26.555 C 99.751 19.672,116.728 13.494,140.600 9.039 C 143.680 8.464,147.100 7.823,148.200 7.613 C 152.963 6.706,166.864 4.879,178.600 3.616 C 186.309 2.787,199.542 1.849,212.600 1.205 C 222.634 0.710,266.100 0.709,276.000 1.204 C 289.765 1.892,302.220 2.772,309.800 3.592 C 319.827 4.677,324.824 5.256,327.000 5.587 C 328.320 5.788,330.840 6.162,332.600 6.417 C 337.547 7.136,349.106 9.127,352.000 9.760 C 363.936 12.369,367.701 13.354,375.071 15.794 C 387.725 19.983,395.696 24.601,398.867 29.578 L 400.000 31.357 400.000 15.678 L 400.000 0.000 200.000 0.000 L 0.000 0.000 -0.000 69.002 M0.000 331.400 L 0.000 400.000 200.000 400.000 L 400.000 400.000 400.000 384.322 L 400.000 368.643 398.867 370.422 C 394.264 377.648,378.765 384.510,356.000 389.400 C 354.350 389.754,352.280 390.209,351.400 390.410 C 345.379 391.787,329.573 394.236,319.200 395.400 C 308.057 396.651,306.419 396.812,299.000 397.385 C 278.729 398.950,277.017 399.000,244.200 399.000 C 211.344 399.000,209.419 398.943,189.600 397.379 C 141.160 393.557,104.513 384.580,92.700 373.643 C 88.372 369.637,88.800 375.999,88.800 315.616 L 88.800 262.800 44.400 262.800 L 0.000 262.800 0.000 331.400 " stroke="none" fill="#444444" fill-rule="evenodd"></path><path id="path4" d="M237.556 0.962 C 237.422 1.104,231.122 1.402,223.556 1.623 C 209.919 2.021,193.901 2.857,186.200 3.573 C 178.489 4.289,169.774 5.205,167.000 5.590 C 165.460 5.804,162.130 6.248,159.600 6.578 C 157.070 6.907,154.010 7.348,152.800 7.558 C 151.590 7.767,148.890 8.214,146.800 8.551 C 144.710 8.888,142.190 9.337,141.200 9.548 C 140.210 9.760,138.140 10.144,136.600 10.402 C 135.060 10.660,133.440 11.023,133.000 11.209 C 132.560 11.394,131.660 11.640,131.000 11.755 C 129.288 12.055,125.109 13.014,124.400 13.270 C 122.802 13.847,120.849 14.378,119.400 14.628 C 118.520 14.780,117.620 15.031,117.400 15.187 C 117.180 15.342,115.920 15.782,114.600 16.165 C 113.280 16.548,111.840 17.006,111.400 17.183 C 110.960 17.360,109.790 17.820,108.800 18.206 C 96.666 22.940,90.650 27.579,89.259 33.277 C 88.926 34.639,88.800 49.278,88.800 86.577 L 88.800 138.000 115.800 138.000 L 142.800 138.000 142.800 107.824 C 142.800 91.227,142.955 77.552,143.144 77.435 C 143.333 77.318,143.598 76.422,143.732 75.445 C 143.968 73.723,145.096 71.261,146.241 69.969 C 146.548 69.621,146.800 69.164,146.800 68.953 C 146.800 68.499,150.487 64.800,150.940 64.800 C 151.113 64.800,151.841 64.351,152.560 63.803 C 153.279 63.255,154.441 62.692,155.142 62.552 C 155.843 62.411,156.514 62.140,156.632 61.948 C 156.750 61.757,157.366 61.600,158.000 61.600 C 158.634 61.600,159.264 61.420,159.400 61.200 C 159.536 60.980,161.156 60.800,163.000 60.800 C 164.844 60.800,166.464 60.980,166.600 61.200 C 166.736 61.420,167.265 61.600,167.775 61.600 C 169.273 61.600,172.755 63.096,175.400 64.877 C 177.199 66.088,297.370 186.327,298.654 188.200 C 303.373 195.087,303.483 205.305,298.911 212.088 C 298.359 212.906,270.371 241.111,236.716 274.764 C 171.440 340.036,175.477 336.194,169.238 338.972 C 167.821 339.602,157.113 339.539,156.900 338.899 C 156.808 338.625,156.445 338.400,156.093 338.400 C 155.228 338.400,152.181 336.900,151.583 336.180 C 151.319 335.861,150.906 335.600,150.666 335.600 C 150.149 335.600,146.800 332.386,146.800 331.890 C 146.800 331.701,146.377 330.974,145.860 330.273 C 144.716 328.723,143.600 325.929,143.600 324.616 C 143.600 324.083,143.420 323.536,143.200 323.400 C 142.939 323.239,142.800 312.679,142.800 293.025 L 142.800 262.898 88.700 262.622 C 58.945 262.471,26.770 262.405,17.200 262.478 C 7.630 262.550,19.825 262.652,44.300 262.704 L 88.800 262.800 88.800 313.823 C 88.800 350.981,88.925 365.356,89.261 366.723 C 90.349 371.153,95.172 375.760,102.000 378.889 C 105.146 380.331,107.878 381.503,109.200 381.978 C 109.970 382.254,110.960 382.630,111.400 382.812 C 111.840 382.994,113.190 383.439,114.400 383.800 C 115.610 384.161,116.960 384.606,117.400 384.788 C 117.840 384.970,119.460 385.422,121.000 385.792 C 122.540 386.162,124.160 386.605,124.600 386.776 C 125.787 387.238,130.892 388.407,131.705 388.403 C 132.093 388.402,132.723 388.567,133.105 388.771 C 133.487 388.975,135.060 389.350,136.600 389.604 C 138.140 389.859,140.210 390.238,141.200 390.448 C 142.821 390.791,144.396 391.064,152.600 392.425 C 154.927 392.812,160.866 393.645,166.600 394.391 C 204.844 399.363,260.946 400.196,302.800 396.413 C 309.021 395.851,318.611 394.845,321.800 394.421 C 331.530 393.125,334.034 392.775,336.000 392.438 C 337.210 392.231,339.910 391.786,342.000 391.449 C 344.090 391.112,346.610 390.663,347.600 390.452 C 348.590 390.240,350.660 389.856,352.200 389.598 C 353.740 389.340,355.360 388.977,355.800 388.791 C 356.240 388.606,357.140 388.360,357.800 388.245 C 359.599 387.930,363.717 386.978,364.400 386.719 C 364.730 386.594,365.810 386.283,366.800 386.028 C 369.049 385.448,376.326 383.242,377.400 382.814 C 377.840 382.639,379.010 382.180,380.000 381.794 C 385.885 379.498,392.139 376.228,393.920 374.517 C 394.205 374.243,394.760 373.789,395.153 373.509 C 396.586 372.486,398.753 369.166,399.369 367.049 C 400.336 363.722,400.336 36.278,399.369 32.951 C 398.753 30.834,396.586 27.514,395.153 26.491 C 394.760 26.211,394.173 25.716,393.848 25.391 C 393.523 25.066,393.142 24.800,393.002 24.800 C 392.861 24.800,392.174 24.371,391.473 23.846 C 390.773 23.322,389.030 22.316,387.600 21.610 C 386.170 20.905,384.308 19.984,383.462 19.564 C 382.616 19.144,381.744 18.800,381.523 18.800 C 381.302 18.800,380.464 18.512,379.660 18.159 C 378.857 17.807,377.840 17.373,377.400 17.196 C 376.463 16.817,370.841 15.127,367.400 14.188 C 366.080 13.828,364.687 13.368,364.305 13.167 C 363.923 12.965,363.319 12.800,362.963 12.800 C 362.132 12.800,356.851 11.615,355.800 11.193 C 355.360 11.016,353.740 10.660,352.200 10.402 C 350.660 10.144,348.590 9.762,347.600 9.553 C 346.610 9.344,344.090 8.898,342.000 8.561 C 339.910 8.224,337.210 7.777,336.000 7.567 C 334.790 7.356,331.730 6.914,329.200 6.583 C 326.670 6.252,323.250 5.802,321.600 5.584 C 319.950 5.365,315.810 4.910,312.400 4.572 C 308.990 4.234,304.490 3.787,302.400 3.579 C 295.973 2.938,279.188 2.007,267.000 1.614 C 241.654 0.799,237.791 0.713,237.556 0.962 " stroke="none" fill="#34a434" fill-rule="evenodd"></path></g></svg>